<?xml version="1.0" encoding="utf-8"?>
<!-- Generator: Adobe Illustrator 16.0.4, SVG Export Plug-In . SVG Version: 6.00 Build 0)  -->
<!DOCTYPE svg PUBLIC "-//W3C//DTD SVG 1.0//EN" "http://www.w3.org/TR/2001/REC-SVG-20010904/DTD/svg10.dtd">
<svg version="1.0" id="Layer_1" xmlns="http://www.w3.org/2000/svg" xmlns:xlink="http://www.w3.org/1999/xlink" x="0px" y="0px"
	 width="446px" height="124px" viewBox="0 0 446 124" enable-background="new 0 0 446 124" xml:space="preserve">
<g>
	<g>
		<g>
			<g>
				<g enable-background="new    ">
					<g enable-background="new    ">
						<defs>
							<path id="SVGID_1_" enable-background="new    " d="M103.127,14.521l-0.009,4.605l-0.009,4.606
								c-0.011,6.143-0.022,12.286-0.034,18.429l-0.008,4.607c-0.002,1.382-0.006,3.225-0.009,4.607
								c-0.002,1.382-0.006,3.224-0.008,4.606l-0.009,4.605c0-0.076-1.36-1.414-3.194-3.139l0.072-38.423
								C101.76,16.782,103.126,14.857,103.127,14.521z"/>
						</defs>
						<clipPath id="SVGID_2_">
							<use xlink:href="#SVGID_1_"  overflow="visible"/>
						</clipPath>
						<g clip-path="url(#SVGID_2_)" enable-background="new    ">
							<path fill="#2C709E" d="M99.847,57.446l0.072-38.423c0.688-0.837,1.31-1.631,1.819-2.314l-0.079,42.464
								C101.152,58.682,100.533,58.091,99.847,57.446"/>
							<path fill="#2B6D9B" d="M101.659,59.173l0.079-42.464c0.38-0.51,0.697-0.958,0.932-1.317l-0.083,44.695
								C102.353,59.851,102.038,59.54,101.659,59.173"/>
							<path fill="#2A6B97" d="M102.587,60.087l0.083-44.695c0.083-0.126,0.155-0.242,0.217-0.345l-0.084,45.261
								C102.741,60.244,102.669,60.17,102.587,60.087"/>
							<path fill="#296893" d="M102.802,60.308l0.084-45.261c0.034-0.058,0.065-0.112,0.093-0.162l-0.084,45.521
								C102.868,60.376,102.837,60.344,102.802,60.308"/>
							<path fill="#286590" d="M102.895,60.406l0.084-45.521c0.019-0.033,0.035-0.065,0.05-0.095l-0.084,45.67
								C102.93,60.444,102.913,60.426,102.895,60.406"/>
							<path fill="#27638C" d="M102.945,60.46l0.084-45.67c0.012-0.022,0.022-0.044,0.031-0.064l-0.085,45.77
								C102.966,60.485,102.956,60.473,102.945,60.46"/>
							<path fill="#266088" d="M102.976,60.496l0.085-45.77c0.008-0.017,0.015-0.033,0.022-0.048l-0.085,45.843
								C102.991,60.513,102.983,60.504,102.976,60.496"/>
							<path fill="#255E84" d="M102.997,60.521l0.085-45.843c0.005-0.014,0.011-0.026,0.015-0.039l-0.085,45.9
								C103.008,60.534,103.003,60.527,102.997,60.521"/>
							<path fill="#245B81" d="M103.013,60.54l0.085-45.9c0.003-0.009,0.007-0.018,0.01-0.026l-0.085,45.938
								C103.019,60.548,103.016,60.544,103.013,60.54"/>
							<path fill="#23587D" d="M103.022,60.552l0.085-45.938c0.003-0.009,0.005-0.017,0.008-0.024l-0.085,45.973
								C103.027,60.559,103.024,60.555,103.022,60.552"/>
							<path fill="#225679" d="M103.029,60.562l0.085-45.973c0.002-0.008,0.004-0.015,0.006-0.022l-0.085,46.004
								C103.033,60.568,103.032,60.565,103.029,60.562"/>
							<path fill="#215376" d="M103.035,60.571l0.085-46.004c0.001-0.006,0.002-0.011,0.003-0.017l-0.086,46.026
								C103.038,60.575,103.036,60.573,103.035,60.571"/>
							<path fill="#205172" d="M103.039,60.577l0.085-46.026c0.001-0.005,0.001-0.01,0.002-0.015l-0.085,46.046
								C103.04,60.58,103.039,60.579,103.039,60.577"/>
							<polyline fill="#1F4E6E" points="103,61 103,14.536 103,14.522 103,60.585 103,61 							"/>
							<polyline fill="#1E4B6B" points="102.978,61 103,14.522 103,14.521 103.055,19.125 103.078,23.731 103.043,26.035 
								103,28.338 103,30.642 103.044,32.945 103.064,35.249 103.072,37.553 103.069,42.16 103.064,46.768 103.061,49.071 
								103.058,51.375 103.049,56.188 103.009,61 103,61 							"/>
						</g>
					</g>
					<g enable-background="new    ">
						<defs>
							<path id="SVGID_3_" enable-background="new    " d="M103.039,60.588c-10.441,1.467-20.882,2.935-31.324,4.402
								c-15.662,2.201-31.324,4.403-46.986,6.603c0.323-0.045,2.024-1.841,3.913-4.14l71.206-10.008
								C101.728,59.216,103.111,60.578,103.039,60.588z"/>
						</defs>
						<clipPath id="SVGID_4_">
							<use xlink:href="#SVGID_3_"  overflow="visible"/>
						</clipPath>
						<g clip-path="url(#SVGID_4_)" enable-background="new    ">
							<path fill="#2C709E" d="M28.642,67.454l71.206-10.008c0.05,0.047,0.099,0.093,0.147,0.139L28.494,67.634
								C28.543,67.574,28.592,67.514,28.642,67.454"/>
							<path fill="#2B6D9B" d="M28.494,67.634l71.501-10.049c0.238,0.225,0.468,0.442,0.687,0.65L27.783,68.48
								C28.014,68.209,28.252,67.926,28.494,67.634"/>
							<path fill="#2A6B97" d="M27.783,68.48l72.899-10.245c0.199,0.19,0.39,0.372,0.57,0.544L27.167,69.191
								C27.366,68.966,27.572,68.729,27.783,68.48"/>
							<path fill="#296893" d="M27.167,69.191l74.084-10.412c0.157,0.151,0.307,0.296,0.448,0.432L26.663,69.758
								C26.825,69.579,26.994,69.39,27.167,69.191"/>
							<path fill="#286590" d="M26.663,69.758l75.036-10.546c0.119,0.116,0.232,0.226,0.338,0.33L26.266,70.19
								C26.394,70.054,26.526,69.909,26.663,69.758"/>
							<path fill="#27638C" d="M26.266,70.19l75.771-10.649c0.088,0.086,0.171,0.168,0.25,0.246L25.96,70.514
								C26.059,70.412,26.16,70.304,26.266,70.19"/>
							<path fill="#266088" d="M25.96,70.514l76.326-10.727c0.065,0.064,0.126,0.125,0.184,0.183L25.726,70.756
								C25.801,70.68,25.879,70.599,25.96,70.514"/>
							<path fill="#255E84" d="M25.726,70.756L102.47,59.97c0.048,0.049,0.094,0.095,0.137,0.138L25.542,70.938
								C25.601,70.881,25.662,70.82,25.726,70.756"/>
							<path fill="#245B81" d="M25.542,70.938l77.065-10.831c0.036,0.037,0.071,0.072,0.104,0.105L25.397,71.079
								C25.444,71.034,25.492,70.987,25.542,70.938"/>
							<path fill="#23587D" d="M25.397,71.079l77.313-10.866c0.028,0.029,0.054,0.056,0.079,0.082L25.281,71.188
								C25.318,71.153,25.357,71.117,25.397,71.079"/>
							<path fill="#225679" d="M25.281,71.188l77.508-10.893c0.021,0.022,0.04,0.042,0.059,0.062L25.19,71.27
								C25.22,71.244,25.25,71.217,25.281,71.188"/>
							<path fill="#215376" d="M25.19,71.27l77.658-10.914c0.017,0.018,0.033,0.036,0.048,0.052L25.111,71.34
								C25.136,71.317,25.163,71.295,25.19,71.27"/>
							<path fill="#205172" d="M25.111,71.34l77.786-10.932c0.013,0.014,0.025,0.027,0.036,0.039L25.048,71.393
								C25.068,71.376,25.089,71.358,25.111,71.34"/>
							<path fill="#1F4E6E" d="M25.048,71.393l77.885-10.946c0.011,0.012,0.021,0.023,0.03,0.034L24.99,71.439
								C25.008,71.425,25.027,71.409,25.048,71.393"/>
							<path fill="#1E4B6B" d="M24.99,71.439l77.973-10.958c0.009,0.01,0.017,0.019,0.024,0.027L24.94,71.477
								C24.956,71.466,24.973,71.453,24.99,71.439"/>
							<path fill="#1D4967" d="M24.94,71.478l78.046-10.969c0.007,0.008,0.014,0.016,0.02,0.023L24.896,71.51
								C24.91,71.5,24.925,71.488,24.94,71.478"/>
							<path fill="#1C4663" d="M24.896,71.51l78.111-10.978c0.007,0.009,0.014,0.017,0.019,0.024L24.844,71.543
								C24.86,71.533,24.877,71.522,24.896,71.51"/>
							<path fill="#1B4460" d="M24.844,71.543l78.181-10.987c0.015,0.021,0.02,0.032,0.014,0.033l-3.916,0.55l-3.915,0.55
								l-3.915,0.55l-3.916,0.55l-3.916,0.55l-3.916,0.55l-7.832,1.101l-3.916,0.55l-3.916,0.55l-3.916,0.55l-3.916,0.551
								l-3.916,0.55l-3.916,0.551l-3.916,0.55l-3.916,0.551l-3.916,0.55l-3.915,0.551l-3.916,0.55l-3.915,0.55
								C24.757,71.59,24.796,71.573,24.844,71.543"/>
						</g>
					</g>
					<g enable-background="new    ">
						<defs>
							<path id="SVGID_5_" enable-background="new    " d="M20.875,69.477c0.022-12.285,0.045-24.569,0.068-36.854
								c0.002-1.382,0.006-3.224,0.008-4.606c0.003-1.381,0.006-3.223,0.009-4.604c0-0.005,0.007-0.005,0.021,0.003l-0.085,46.108
								C20.882,69.516,20.875,69.5,20.875,69.477z"/>
						</defs>
						<clipPath id="SVGID_6_">
							<use xlink:href="#SVGID_5_"  overflow="visible"/>
						</clipPath>
						<g clip-path="url(#SVGID_6_)" enable-background="new    ">
							<path fill="#1B4460" d="M20.981,23.415l-0.085,46.108c-0.014-0.008-0.021-0.023-0.021-0.047l0.004-2.303l0.004-2.302
								l0.004-2.303l0.004-2.303l0.004-2.303l0.004-2.303l0.004-2.304l0.004-2.304l0.004-2.304l0.004-2.304l0.004-2.304l0.004-2.304
								l0.004-2.304l0.004-2.304l0.009-4.607l0.004-2.303l0.004-2.303l0.004-2.303l0.004-2.302
								C20.961,23.407,20.968,23.407,20.981,23.415"/>
						</g>
					</g>
					<g enable-background="new    ">
						<defs>
							<path id="SVGID_7_" enable-background="new    " d="M20.964,23.409c26.103-3.668,52.206-7.337,78.309-11.006
								c0.014-0.002,0.026,0,0.034,0.004L20.981,23.415C20.973,23.41,20.967,23.408,20.964,23.409z"/>
						</defs>
						<clipPath id="SVGID_8_">
							<use xlink:href="#SVGID_7_"  overflow="visible"/>
						</clipPath>
						<g clip-path="url(#SVGID_8_)" enable-background="new    ">
							<polyline fill="#225679" points="99.307,12.407 20.981,23.415 20.978,23.413 99.303,12.405 99.307,12.407 							"/>
							<polyline fill="#215376" points="99.303,12.405 20.978,23.413 20.974,23.411 99.298,12.403 99.303,12.405 							"/>
							<polyline fill="#205172" points="99.298,12 20.974,23.209 20.97,23.107 99.292,12 99,12 							"/>
							<polyline fill="#1F4E6E" points="99.292,12 20.97,23 20.967,23 99.285,12 99,12 							"/>
							<polyline fill="#1E4B6B" points="99.285,12 20.967,23 20.965,23 99.278,12 99,12 							"/>
							<polyline fill="#1D4967" points="99.296,12 21,23.208 21,23.308 24.897,22.808 28.803,22.283 32.714,21.745 36.627,21.201 
								40.541,20.654 44.456,20.105 48.372,19.556 52.287,19.006 56.203,18.456 60.118,17.906 64.034,17.355 67.95,16.805 
								71.865,16.255 75.781,15.705 79.696,15.154 83.612,14.604 87.527,14.054 91.443,13.503 95.358,12.752 99.273,12 99,12 
															"/>
						</g>
					</g>
					<g>
						<path fill="#2D71A1" d="M99.919,19.023c-0.021,11.527-0.05,26.896-0.072,38.423c-22.548,3.169-48.657,6.838-71.206,10.008
							c0.021-11.527,0.05-26.896,0.072-38.424C51.262,25.861,77.37,22.192,99.919,19.023z"/>
					</g>
					<g>
						<polygon fill="#1A425E" points="24.695,71.59 20.896,69.523 20.981,23.415 24.78,25.481 						"/>
					</g>
					<g>
						<polygon fill="#245C82" points="24.78,25.481 20.981,23.415 99.307,12.407 103.106,14.474 						"/>
					</g>
					<g enable-background="new    ">
						<defs>
							<path id="SVGID_9_" enable-background="new    " d="M28.713,29.03c-1.963-1.846-3.723-3.435-3.933-3.549l78.326-11.008
								c0.209,0.114-1.217,2.15-3.188,4.549L28.713,29.03z"/>
						</defs>
						<clipPath id="SVGID_10_">
							<use xlink:href="#SVGID_9_"  overflow="visible"/>
						</clipPath>
						<g clip-path="url(#SVGID_10_)" enable-background="new    ">
							<path fill="#2C709E" d="M99.919,19.023L28.713,29.03c-0.203-0.191-0.404-0.379-0.602-0.563l72.4-10.175
								C100.321,18.53,100.123,18.775,99.919,19.023"/>
							<path fill="#2D72A2" d="M100.512,18.292l-72.4,10.175c-0.244-0.228-0.481-0.448-0.711-0.661l73.784-10.37
								C100.973,17.711,100.748,17.997,100.512,18.292"/>
							<path fill="#2E75A6" d="M101.185,17.437l-73.784,10.37c-0.215-0.199-0.424-0.391-0.622-0.573l74.967-10.536
								C101.572,16.932,101.384,17.179,101.185,17.437"/>
							<path fill="#2F78A9" d="M101.746,16.697L26.779,27.233c-0.177-0.162-0.346-0.316-0.505-0.461l75.906-10.667
								C102.046,16.291,101.901,16.489,101.746,16.697"/>
							<path fill="#307AAD" d="M102.179,16.105L26.273,26.772c-0.14-0.126-0.271-0.245-0.396-0.356l76.621-10.769
								C102.402,15.79,102.295,15.943,102.179,16.105"/>
							<path fill="#317DB1" d="M102.499,15.647L25.878,26.416c-0.108-0.097-0.209-0.187-0.304-0.271l77.153-10.843
								C102.659,15.409,102.583,15.524,102.499,15.647"/>
							<path fill="#327FB4" d="M102.728,15.302L25.574,26.146c-0.088-0.078-0.17-0.15-0.246-0.216l77.569-10.902
								C102.848,15.111,102.792,15.203,102.728,15.302"/>
							<path fill="#3382B8" d="M102.897,15.028L25.329,25.93c-0.16-0.139-0.29-0.25-0.385-0.327l78.162-10.985
								C103.072,14.713,103.002,14.852,102.897,15.028"/>
							<path fill="#327FB4" d="M103.105,14.618L24.944,25.603c-0.015-0.012-0.028-0.022-0.041-0.033l78.214-10.992
								C103.114,14.59,103.11,14.604,103.105,14.618"/>
							<path fill="#317DB1" d="M103.118,14.578L24.903,25.57c-0.008-0.006-0.016-0.012-0.023-0.018l78.242-10.996
								C103.122,14.563,103.12,14.57,103.118,14.578"/>
							<polyline fill="#307AAD" points="103.123,14.557 24.88,25.553 24.868,25.543 103.125,14.545 103.123,14.557 							"/>
							<polyline fill="#2F78A9" points="103,14.545 24.806,25.543 24.762,25.534 103,14.534 103,15 							"/>
							<polyline fill="#2E75A6" points="103,14.534 24.793,25.534 24.75,25.525 103,14.523 103,15 							"/>
							<polyline fill="#2D72A2" points="103,14.523 24.781,25.525 24.74,25.518 103,14.515 103,15 							"/>
							<polyline fill="#2C709E" points="103,14.515 24.771,25.518 24.73,25.511 103,14.506 103,15 							"/>
							<polyline fill="#2B6D9B" points="103,14.506 24.762,25.511 24.725,25.506 103,14.5 103,15 							"/>
							<polyline fill="#2A6B97" points="103.125,14.5 24.818,25.506 24.812,25.502 103.124,14.496 103.125,14.5 							"/>
							<polyline fill="#296893" points="103.124,14.496 24.812,25.502 24.807,25.499 103.122,14.492 103.124,14.496 							"/>
							<polyline fill="#286590" points="103.122,14.492 24.807,25.499 24.802,25.495 103.12,14.488 103.122,14.492 							"/>
							<polyline fill="#27638C" points="103.12,14.488 24.802,25.495 24.797,25.492 103.118,14.484 103.12,14.488 							"/>
							<polyline fill="#266088" points="103.118,14.484 24.797,25.492 24.793,25.489 103.116,14.481 103.118,14.484 							"/>
							<polyline fill="#255E84" points="103.116,14.481 24.793,25.489 24.789,25.486 103.113,14.479 103.116,14.481 							"/>
							<polyline fill="#245B81" points="103.113,14.479 24.789,25.486 24.785,25.484 103.11,14.476 103.113,14.479 							"/>
							<polyline fill="#23587D" points="103.11,14.476 24.785,25.484 24.781,25.482 103.107,14.474 103.11,14.476 							"/>
							<polyline fill="#225679" points="103.107,14.474 24.781,25.482 24.78,25.481 103.106,14.474 103.107,14.474 							"/>
						</g>
					</g>
					<g enable-background="new    ">
						<defs>
							<path id="SVGID_11_" enable-background="new    " d="M28.642,67.454c-1.97,2.398-3.737,4.25-3.947,4.136l0.085-46.108
								c0.21,0.114,1.97,1.703,3.933,3.549L28.642,67.454z"/>
						</defs>
						<clipPath id="SVGID_12_">
							<use xlink:href="#SVGID_11_"  overflow="visible"/>
						</clipPath>
						<g clip-path="url(#SVGID_12_)" enable-background="new    ">
							<path fill="#2C709E" d="M28.713,29.03l-0.072,38.424c-0.502,0.611-0.991,1.188-1.445,1.704l0.077-41.469
								C27.726,28.106,28.213,28.56,28.713,29.03"/>
							<path fill="#2B6D9B" d="M27.274,27.689l-0.077,41.469c-0.547,0.624-1.043,1.162-1.447,1.572l0.082-44.355
								C26.235,26.736,26.729,27.186,27.274,27.689"/>
							<path fill="#2A6B97" d="M25.832,26.375L25.75,70.73c-0.14,0.143-0.268,0.269-0.384,0.378l0.083-45.073
								C25.565,26.137,25.693,26.251,25.832,26.375"/>
							<path fill="#296893" d="M25.449,26.035l-0.083,45.073c-0.065,0.062-0.127,0.118-0.184,0.169l0.084-45.402
								C25.323,25.925,25.384,25.978,25.449,26.035"/>
							<path fill="#286590" d="M25.266,25.875l-0.084,45.402c-0.038,0.034-0.075,0.066-0.109,0.095l0.085-45.591
								C25.191,25.811,25.228,25.842,25.266,25.875"/>
							<path fill="#27638C" d="M25.157,25.781l-0.085,45.591c-0.027,0.023-0.054,0.045-0.079,0.064l0.085-45.722
								C25.104,25.736,25.13,25.758,25.157,25.781"/>
							<path fill="#266088" d="M25.079,25.715l-0.085,45.722c-0.017,0.013-0.033,0.025-0.048,0.037l0.085-45.799
								C25.046,25.688,25.062,25.701,25.079,25.715"/>
							<path fill="#255E84" d="M25.031,25.675l-0.085,45.799c-0.015,0.011-0.03,0.021-0.044,0.031l0.085-45.867
								C25.001,25.65,25.016,25.662,25.031,25.675"/>
							<path fill="#245B81" d="M24.987,25.638l-0.085,45.867c-0.011,0.008-0.021,0.015-0.031,0.021l0.085-45.914
								C24.966,25.621,24.976,25.629,24.987,25.638"/>
							<path fill="#23587D" d="M24.956,25.612L24.87,71.526c-0.009,0.006-0.017,0.012-0.025,0.017l0.085-45.951
								C24.938,25.599,24.947,25.605,24.956,25.612"/>
							<path fill="#225679" d="M24.93,25.592l-0.085,45.951c-0.008,0.005-0.017,0.01-0.024,0.015l0.086-45.985
								C24.914,25.579,24.922,25.585,24.93,25.592"/>
							<path fill="#215376" d="M24.906,25.573L24.82,71.558c-0.007,0.004-0.014,0.008-0.021,0.011l0.086-46.013
								C24.892,25.561,24.898,25.567,24.906,25.573"/>
							<path fill="#205172" d="M24.885,25.556l-0.086,46.013c-0.006,0.004-0.012,0.006-0.017,0.009l0.085-46.035
								C24.873,25.546,24.878,25.551,24.885,25.556"/>
							<path fill="#1F4E6E" d="M24.867,25.542l-0.085,46.035c-0.005,0.003-0.011,0.005-0.016,0.007l0.085-46.054
								C24.856,25.534,24.862,25.538,24.867,25.542"/>
							<path fill="#1E4B6B" d="M24.851,25.53l-0.085,46.054c-0.005,0.002-0.01,0.004-0.015,0.005l0.086-46.07
								C24.841,25.522,24.846,25.526,24.851,25.53"/>
							<path fill="#1D4967" d="M24.836,25.519l-0.086,46.07c-0.005,0.002-0.01,0.003-0.014,0.004l0.086-46.084
								C24.827,25.512,24.831,25.515,24.836,25.519"/>
							<path fill="#1C4663" d="M24.822,25.509l-0.086,46.084c-0.009,0.002-0.017,0.003-0.023,0.002l0.085-46.102
								C24.806,25.497,24.813,25.502,24.822,25.509"/>
							<path fill="#1B4460" d="M24.798,25.493l-0.085,46.102c-0.007,0-0.013-0.002-0.018-0.005l0.085-46.108
								C24.786,25.484,24.792,25.488,24.798,25.493"/>
						</g>
					</g>
				</g>
			</g>
		</g>
		<g>
			<g>
				<g enable-background="new    ">
					<g enable-background="new    ">
						<defs>
							<path id="SVGID_13_" enable-background="new    " d="M113.126,34.519c-0.012,6.143-0.023,12.286-0.035,18.428
								c-0.005,3.073-0.011,6.145-0.017,9.217l-0.008,4.608c-0.002,1.382-0.006,3.225-0.009,4.607
								c-0.001,0.691-0.003,1.613-0.004,2.304c-0.002,1.382-0.006,3.225-0.008,4.606c-0.001,0.691-0.003,1.612-0.004,2.303
								c0-0.075-1.36-1.414-3.194-3.139l0.072-38.432C111.759,36.78,113.125,34.855,113.126,34.519z"/>
						</defs>
						<clipPath id="SVGID_14_">
							<use xlink:href="#SVGID_13_"  overflow="visible"/>
						</clipPath>
						<g clip-path="url(#SVGID_14_)" enable-background="new    ">
							<path fill="#2C9F63" d="M109.846,77.453l0.072-38.432c0.688-0.838,1.31-1.632,1.819-2.314l-0.079,42.473
								C111.151,78.688,110.532,78.098,109.846,77.453"/>
							<path fill="#2B9B61" d="M111.658,79.18l0.079-42.473c0.38-0.51,0.697-0.958,0.932-1.317l-0.083,44.704
								C112.352,79.857,112.037,79.547,111.658,79.18"/>
							<path fill="#2A985E" d="M112.586,80.094l0.083-44.704c0.083-0.126,0.155-0.242,0.217-0.345l-0.084,45.27
								C112.74,80.251,112.668,80.177,112.586,80.094"/>
							<path fill="#29945C" d="M112.801,80.314l0.084-45.27c0.034-0.058,0.065-0.112,0.093-0.162l-0.084,45.53
								C112.867,80.383,112.836,80.351,112.801,80.314"/>
							<path fill="#28905A" d="M112.894,80.413l0.084-45.53c0.019-0.034,0.035-0.065,0.05-0.095l-0.084,45.678
								C112.929,80.45,112.912,80.433,112.894,80.413"/>
							<path fill="#278D57" d="M112.944,80.467l0.084-45.678c0.012-0.022,0.022-0.044,0.031-0.064l-0.085,45.778
								C112.965,80.491,112.955,80.479,112.944,80.467"/>
							<path fill="#268955" d="M112.975,80.502l0.085-45.778c0.008-0.017,0.015-0.033,0.022-0.048l-0.085,45.852
								C112.99,80.52,112.982,80.512,112.975,80.502"/>
							<path fill="#258553" d="M112.996,80.527l0.085-45.852c0.005-0.013,0.011-0.026,0.015-0.038l-0.085,45.908
								C113.007,80.54,113.002,80.534,112.996,80.527"/>
							<path fill="#248251" d="M113.012,80.546l0.085-45.908c0.003-0.009,0.007-0.018,0.01-0.026l-0.085,45.947
								C113.018,80.555,113.015,80.551,113.012,80.546"/>
							<path fill="#237E4E" d="M113.021,80.559l0.085-45.947c0.002-0.008,0.005-0.017,0.007-0.024l-0.085,45.981
								C113.026,80.565,113.023,80.562,113.021,80.559"/>
							<path fill="#227A4C" d="M113.028,80.568l0.085-45.981c0.002-0.007,0.004-0.015,0.006-0.022l-0.085,46.012
								C113.032,80.575,113.031,80.572,113.028,80.568"/>
							<path fill="#21764A" d="M113.034,80.577l0.085-46.012c0.001-0.006,0.002-0.011,0.003-0.017l-0.086,46.035
								C113.037,80.582,113.035,80.58,113.034,80.577"/>
							<path fill="#207347" d="M113.037,80.583l0.086-46.035c0.001-0.005,0.001-0.01,0.002-0.015l-0.085,46.054
								C113.039,80.587,113.038,80.585,113.037,80.583"/>
							<polyline fill="#1F6F45" points="113,81 113,34.534 113,34.521 113,80.592 113,81 							"/>
							<polyline fill="#1E6B43" points="112.978,80.592 113,34.521 113,34.519 113.059,36.821 113.086,39.125 113.047,41.428 
								113,43.731 113,46.035 113.048,48.339 113.065,52.947 113.074,55.251 113.077,57.555 113.071,62.164 113.064,66.772 
								113.061,69.076 113.057,71.379 113.053,73.683 113.049,75.986 113.013,78.289 112.978,80.592 112.978,80.592 							"/>
						</g>
					</g>
					<g enable-background="new    ">
						<defs>
							<path id="SVGID_15_" enable-background="new    " d="M113.038,80.596c-26.104,3.668-52.207,7.337-78.31,11.005
								c0.323-0.045,2.024-1.841,3.913-4.14l71.206-10.008C111.727,79.223,113.11,80.585,113.038,80.596z"/>
						</defs>
						<clipPath id="SVGID_16_">
							<use xlink:href="#SVGID_15_"  overflow="visible"/>
						</clipPath>
						<g clip-path="url(#SVGID_16_)" enable-background="new    ">
							<path fill="#2C9F63" d="M38.641,87.461l71.206-10.008c0.049,0.047,0.099,0.093,0.147,0.139L38.493,87.641
								C38.542,87.581,38.591,87.521,38.641,87.461"/>
							<path fill="#2B9B61" d="M38.493,87.641l71.501-10.049c0.238,0.225,0.468,0.442,0.687,0.65L37.782,88.487
								C38.013,88.216,38.251,87.933,38.493,87.641"/>
							<path fill="#2A985E" d="M37.781,88.487l72.899-10.245c0.199,0.189,0.39,0.371,0.57,0.545L37.167,89.198
								C37.365,88.973,37.571,88.734,37.781,88.487"/>
							<path fill="#29945C" d="M37.167,89.198l74.084-10.411c0.157,0.15,0.307,0.295,0.448,0.432L36.662,89.765
								C36.824,89.585,36.993,89.396,37.167,89.198"/>
							<path fill="#28905A" d="M36.662,89.765l75.036-10.546c0.119,0.115,0.232,0.226,0.338,0.329L36.265,90.197
								C36.393,90.061,36.525,89.916,36.662,89.765"/>
							<path fill="#278D57" d="M36.265,90.197l75.771-10.649c0.088,0.087,0.171,0.169,0.25,0.246L35.959,90.521
								C36.057,90.419,36.159,90.311,36.265,90.197"/>
							<path fill="#268955" d="M35.959,90.521l76.326-10.727c0.065,0.064,0.126,0.125,0.184,0.183L35.725,90.763
								C35.8,90.687,35.878,90.605,35.959,90.521"/>
							<path fill="#258553" d="M35.725,90.763l76.745-10.786c0.048,0.049,0.094,0.095,0.137,0.138L35.542,90.945
								C35.6,90.888,35.661,90.826,35.725,90.763"/>
							<path fill="#248251" d="M35.542,90.945l77.065-10.831c0.037,0.037,0.071,0.072,0.104,0.105L35.396,91.086
								C35.443,91.041,35.491,90.994,35.542,90.945"/>
							<path fill="#237E4E" d="M35.396,91.086L112.71,80.22c0.028,0.028,0.054,0.056,0.079,0.082L35.28,91.194
								C35.317,91.16,35.356,91.124,35.396,91.086"/>
							<path fill="#227A4C" d="M35.28,91.194l77.508-10.893c0.021,0.021,0.04,0.042,0.059,0.061L35.189,91.276
								C35.219,91.251,35.249,91.224,35.28,91.194"/>
							<path fill="#21764A" d="M35.189,91.276l77.658-10.914c0.017,0.019,0.033,0.036,0.048,0.052L35.11,91.347
								C35.135,91.324,35.162,91.301,35.189,91.276"/>
							<path fill="#207347" d="M35.11,91.347l77.786-10.933c0.013,0.014,0.025,0.027,0.036,0.039L35.047,91.399
								C35.067,91.383,35.088,91.365,35.11,91.347"/>
							<path fill="#1F6F45" d="M35.047,91.399l77.885-10.946c0.011,0.013,0.021,0.024,0.03,0.034L34.989,91.446
								C35.007,91.432,35.026,91.416,35.047,91.399"/>
							<path fill="#1E6B43" d="M34.989,91.446l77.973-10.959c0.009,0.01,0.017,0.02,0.024,0.027L34.939,91.483
								C34.955,91.472,34.972,91.46,34.989,91.446"/>
							<path fill="#1D6840" d="M34.939,91.483l78.046-10.969c0.007,0.009,0.014,0.017,0.02,0.023L34.895,91.517
								C34.909,91.506,34.924,91.495,34.939,91.483"/>
							<path fill="#1C643E" d="M34.895,91.517l78.111-10.979c0.007,0.01,0.014,0.018,0.019,0.024L34.843,91.55
								C34.859,91.54,34.876,91.529,34.895,91.517"/>
							<path fill="#1B603C" d="M34.843,91.55l78.181-10.987c0.015,0.021,0.02,0.032,0.014,0.033l-3.916,0.55l-3.915,0.55
								l-3.915,0.551l-3.916,0.55l-3.916,0.551l-3.916,0.55l-3.916,0.551l-3.916,0.55l-3.916,0.551l-3.916,0.55l-3.916,0.551
								l-3.916,0.55l-3.916,0.551l-3.916,0.55l-3.916,0.551l-3.916,0.55l-3.916,0.551l-3.915,0.55l-3.916,0.551l-3.915,0.55
								C34.756,91.597,34.795,91.58,34.843,91.55"/>
						</g>
					</g>
					<g enable-background="new    ">
						<defs>
							<path id="SVGID_17_" enable-background="new    " d="M30.875,89.483c0.014-7.679,0.028-15.357,0.042-23.037l0,0
								c0.014-7.679,0.029-15.358,0.043-23.037c0-0.005,0.007-0.004,0.021,0.003L30.895,89.53
								C30.881,89.522,30.875,89.507,30.875,89.483z"/>
						</defs>
						<clipPath id="SVGID_18_">
							<use xlink:href="#SVGID_17_"  overflow="visible"/>
						</clipPath>
						<g clip-path="url(#SVGID_18_)" enable-background="new    ">
							<path fill="#1B603C" d="M30.98,43.413L30.895,89.53c-0.014-0.008-0.021-0.023-0.021-0.047l0.004-2.303l0.004-2.303
								l0.004-2.304l0.004-2.304l0.004-2.304l0.004-2.304l0.004-2.304l0.004-2.305l0.008-4.608l0,0l0.004-2.304l0.004-2.304
								l0.004-2.304l0.004-2.304l0.004-2.304l0.004-2.304l0.004-2.303l0.004-2.304l0.004-2.303l0.004-2.303
								C30.96,43.405,30.967,43.406,30.98,43.413"/>
						</g>
					</g>
					<g enable-background="new    ">
						<defs>
							<path id="SVGID_19_" enable-background="new    " d="M30.963,43.407c7.831-1.101,15.661-2.201,23.492-3.302
								c18.272-2.568,36.545-5.136,54.817-7.704c0.014-0.002,0.026,0,0.034,0.004L30.98,43.413
								C30.972,43.408,30.966,43.406,30.963,43.407z"/>
						</defs>
						<clipPath id="SVGID_20_">
							<use xlink:href="#SVGID_19_"  overflow="visible"/>
						</clipPath>
						<g clip-path="url(#SVGID_20_)" enable-background="new    ">
							<polyline fill="#227A4C" points="109.306,32.405 30.98,43.413 30.977,43.411 109.302,32.403 109.306,32.405 							"/>
							<polyline fill="#21764A" points="109.302,32.403 30.977,43.411 30.973,43.409 109.297,32.401 109.302,32.403 							"/>
							<polyline fill="#207347" points="109.297,32 30.973,43 30.969,43 109.291,32 109,32 							"/>
							<polyline fill="#1F6F45" points="109.291,32 30.969,43 30.966,43 109.284,32 109,32 							"/>
							<polyline fill="#1E6B43" points="109.284,32 30.966,43 30.964,43 109.277,32 109,32 							"/>
							<polyline fill="#1D6840" points="109.295,32 31,43.207 31,43.307 34.896,42.807 38.802,42.281 42.713,41.743 46.626,41.199 
								54.456,40.102 58.371,39.553 62.287,39.003 66.202,38.454 70.117,37.904 74.033,37.354 77.949,36.803 81.864,36.253 
								85.78,35.703 89.695,35.152 93.611,34.602 97.526,34.052 101.442,33.501 105.357,32.751 109.272,32 109,32 							"/>
						</g>
					</g>
					<g>
						<path fill="#2DA164" d="M109.918,39.021c-0.021,11.53-0.05,26.902-0.072,38.432c-22.548,3.169-48.657,6.838-71.206,10.008
							c0.021-11.53,0.05-26.902,0.072-38.432C61.261,45.86,87.369,42.19,109.918,39.021z"/>
					</g>
					<g>
						<polygon fill="#1A5E3B" points="34.694,91.597 30.895,89.53 30.98,43.413 34.779,45.479 						"/>
					</g>
					<g>
						<polygon fill="#248351" points="34.779,45.479 30.98,43.413 109.306,32.405 113.105,34.472 						"/>
					</g>
					<g enable-background="new    ">
						<defs>
							<path id="SVGID_21_" enable-background="new    " d="M38.712,49.029c-1.963-1.846-3.723-3.435-3.933-3.549l78.326-11.008
								c0.209,0.114-1.217,2.151-3.188,4.55L38.712,49.029z"/>
						</defs>
						<clipPath id="SVGID_22_">
							<use xlink:href="#SVGID_21_"  overflow="visible"/>
						</clipPath>
						<g clip-path="url(#SVGID_22_)" enable-background="new    ">
							<path fill="#2C9F63" d="M109.918,39.021L38.712,49.029c-0.204-0.191-0.404-0.38-0.602-0.564l72.401-10.175
								C110.32,38.528,110.122,38.773,109.918,39.021"/>
							<path fill="#2DA365" d="M110.511,38.29L38.11,48.465c-0.243-0.228-0.481-0.448-0.71-0.661l73.784-10.37
								C110.972,37.709,110.747,37.995,110.511,38.29"/>
							<path fill="#2EA768" d="M111.184,37.435L37.4,47.804c-0.216-0.199-0.424-0.391-0.623-0.573l74.968-10.536
								C111.571,36.93,111.383,37.177,111.184,37.435"/>
							<path fill="#2FAA6A" d="M111.746,36.695L36.777,47.231c-0.177-0.162-0.346-0.316-0.505-0.46l75.906-10.668
								C112.045,36.289,111.901,36.487,111.746,36.695"/>
							<path fill="#30AE6C" d="M112.178,36.103L36.272,46.771c-0.14-0.126-0.272-0.246-0.396-0.357l76.621-10.769
								C112.401,35.788,112.294,35.941,112.178,36.103"/>
							<path fill="#31B26E" d="M112.498,35.646L35.877,46.414c-0.108-0.096-0.209-0.187-0.304-0.271l77.153-10.843
								C112.658,35.407,112.582,35.522,112.498,35.646"/>
							<path fill="#32B571" d="M112.727,35.301L35.573,46.144c-0.088-0.078-0.17-0.15-0.246-0.216l77.569-10.901
								C112.848,35.109,112.791,35.201,112.727,35.301"/>
							<path fill="#33B973" d="M112.896,35.026L35.328,45.928c-0.16-0.139-0.29-0.25-0.385-0.327l78.162-10.985
								C113.071,34.711,113.001,34.85,112.896,35.026"/>
							<path fill="#32B571" d="M113.104,34.616L34.943,45.601c-0.015-0.012-0.028-0.022-0.041-0.033l78.214-10.992
								C113.113,34.588,113.109,34.602,113.104,34.616"/>
							<path fill="#31B26E" d="M113.117,34.576L34.902,45.568c-0.008-0.006-0.016-0.012-0.023-0.018l78.242-10.996
								C113.121,34.562,113.119,34.568,113.117,34.576"/>
							<polyline fill="#30AE6C" points="113.122,34.555 34.879,45.551 34.867,45.541 113.124,34.543 113.122,34.555 							"/>
							<polyline fill="#2FAA6A" points="113,34.543 34.805,45.541 34.762,45.532 113,34.532 113,35 							"/>
							<polyline fill="#2EA768" points="113,34.532 34.792,45.532 34.75,45.523 113,34.522 113,35 							"/>
							<polyline fill="#2DA365" points="113,34.522 34.781,45.523 34.739,45.516 113,34.513 113,35 							"/>
							<polyline fill="#2C9F63" points="113,34.513 34.771,45.516 34.73,45.509 113,34.504 113,35 							"/>
							<polyline fill="#2B9B61" points="113,34.504 34.761,45.509 34.724,45.504 113,34.499 113,35 							"/>
							<polyline fill="#2A985E" points="113.124,34.499 34.817,45.504 34.812,45.5 113.123,34.494 113.124,34.499 							"/>
							<polyline fill="#29945C" points="113.123,34.494 34.812,45.5 34.806,45.497 113.121,34.49 113.123,34.494 							"/>
							<polyline fill="#28905A" points="113.121,34.49 34.806,45.497 34.801,45.493 113.119,34.486 113.121,34.49 							"/>
							<polyline fill="#278D57" points="113.119,34.486 34.801,45.493 34.796,45.49 113.117,34.483 113.119,34.486 							"/>
							<polyline fill="#268955" points="113.117,34.483 34.796,45.49 34.792,45.487 113.115,34.479 113.117,34.483 							"/>
							<polyline fill="#258553" points="113.115,34.479 34.792,45.487 34.788,45.484 113.112,34.477 113.115,34.479 							"/>
							<polyline fill="#248251" points="113.112,34.477 34.788,45.484 34.784,45.482 113.109,34.474 113.112,34.477 							"/>
							<polyline fill="#237E4E" points="113.109,34.474 34.784,45.482 34.78,45.48 113.106,34.472 113.109,34.474 							"/>
							<polyline fill="#227A4C" points="113.106,34.472 34.78,45.48 34.78,45.48 113.105,34.472 113.106,34.472 							"/>
						</g>
					</g>
					<g enable-background="new    ">
						<defs>
							<path id="SVGID_23_" enable-background="new    " d="M38.641,87.461c-1.97,2.398-3.737,4.25-3.947,4.136l0.085-46.117
								c0.21,0.114,1.97,1.703,3.933,3.549L38.641,87.461z"/>
						</defs>
						<clipPath id="SVGID_24_">
							<use xlink:href="#SVGID_23_"  overflow="visible"/>
						</clipPath>
						<g clip-path="url(#SVGID_24_)" enable-background="new    ">
							<path fill="#2C9F63" d="M38.712,49.029l-0.072,38.432c-0.502,0.611-0.991,1.188-1.445,1.704l0.077-41.478
								C37.725,48.104,38.212,48.558,38.712,49.029"/>
							<path fill="#2B9B61" d="M37.273,47.687l-0.077,41.478c-0.547,0.624-1.043,1.162-1.447,1.572l0.083-44.364
								C36.234,46.734,36.728,47.184,37.273,47.687"/>
							<path fill="#2A985E" d="M35.832,46.374l-0.083,44.364c-0.14,0.142-0.268,0.269-0.384,0.378l0.083-45.082
								C35.564,46.135,35.692,46.249,35.832,46.374"/>
							<path fill="#29945C" d="M35.448,46.034l-0.083,45.082c-0.065,0.062-0.127,0.118-0.184,0.169l0.084-45.411
								C35.322,45.923,35.383,45.976,35.448,46.034"/>
							<path fill="#28905A" d="M35.265,45.874l-0.084,45.411c-0.038,0.034-0.075,0.065-0.109,0.095l0.085-45.599
								C35.19,45.809,35.227,45.84,35.265,45.874"/>
							<path fill="#278D57" d="M35.156,45.78l-0.085,45.599c-0.027,0.023-0.054,0.045-0.079,0.064l0.085-45.73
								C35.103,45.734,35.129,45.756,35.156,45.78"/>
							<path fill="#268955" d="M35.078,45.713l-0.085,45.73c-0.017,0.013-0.033,0.025-0.048,0.036l0.085-45.807
								C35.045,45.686,35.061,45.699,35.078,45.713"/>
							<path fill="#258553" d="M35.03,45.673l-0.085,45.807c-0.015,0.012-0.03,0.022-0.044,0.032l0.085-45.875
								C35,45.648,35.015,45.66,35.03,45.673"/>
							<path fill="#248251" d="M34.986,45.636L34.9,91.512c-0.011,0.008-0.021,0.015-0.031,0.021l0.085-45.922
								C34.965,45.619,34.975,45.627,34.986,45.636"/>
							<path fill="#237E4E" d="M34.955,45.611l-0.085,45.922c-0.009,0.006-0.017,0.012-0.025,0.017l0.085-45.96
								C34.938,45.597,34.946,45.604,34.955,45.611"/>
							<path fill="#227A4C" d="M34.929,45.59l-0.085,45.96c-0.008,0.005-0.017,0.01-0.024,0.014l0.086-45.993
								C34.913,45.577,34.921,45.583,34.929,45.59"/>
							<path fill="#21764A" d="M34.905,45.571l-0.086,45.993c-0.007,0.005-0.014,0.009-0.021,0.012l0.086-46.021
								C34.891,45.56,34.897,45.565,34.905,45.571"/>
							<path fill="#207347" d="M34.884,45.554l-0.086,46.021c-0.006,0.003-0.012,0.006-0.017,0.009l0.085-46.043
								C34.872,45.545,34.877,45.549,34.884,45.554"/>
							<path fill="#1F6F45" d="M34.866,45.541l-0.085,46.043c-0.005,0.002-0.011,0.005-0.016,0.007l0.085-46.062
								C34.855,45.532,34.861,45.536,34.866,45.541"/>
							<path fill="#1E6B43" d="M34.85,45.528l-0.085,46.062c-0.005,0.002-0.01,0.004-0.015,0.005l0.086-46.079
								C34.84,45.521,34.845,45.524,34.85,45.528"/>
							<path fill="#1D6840" d="M34.835,45.517L34.75,91.596c-0.005,0.002-0.01,0.003-0.014,0.004l0.086-46.093
								C34.826,45.51,34.83,45.514,34.835,45.517"/>
							<path fill="#1C643E" d="M34.821,45.507L34.735,91.6c-0.009,0.002-0.017,0.003-0.023,0.002l0.085-46.111
								C34.805,45.495,34.812,45.5,34.821,45.507"/>
							<path fill="#1B603C" d="M34.797,45.491l-0.085,46.111c-0.007,0-0.013-0.002-0.018-0.005l0.085-46.117
								C34.785,45.482,34.791,45.486,34.797,45.491"/>
						</g>
					</g>
				</g>
			</g>
		</g>
		<g>
			<g>
				<g enable-background="new    ">
					<g enable-background="new    ">
						<defs>
							<path id="SVGID_25_" enable-background="new    " d="M48.64,107.459c-1.97,2.398-3.737,4.25-3.947,4.136l0.085-46.117
								c0.21,0.114,1.97,1.703,3.933,3.549L48.64,107.459z"/>
						</defs>
						<clipPath id="SVGID_26_">
							<use xlink:href="#SVGID_25_"  overflow="visible"/>
						</clipPath>
						<g clip-path="url(#SVGID_26_)" enable-background="new    ">
							<path fill="#A12C7A" d="M48.711,69.026l-0.072,38.433c-0.502,0.611-0.991,1.188-1.445,1.704l0.077-41.478
								C47.724,68.103,48.211,68.556,48.711,69.026"/>
							<path fill="#9D2B77" d="M47.272,67.686l-0.077,41.478c-0.547,0.624-1.043,1.162-1.447,1.572l0.083-44.364
								C46.233,66.732,46.727,67.182,47.272,67.686"/>
							<path fill="#992A74" d="M45.831,66.372l-0.083,44.364c-0.14,0.142-0.268,0.269-0.384,0.378l0.083-45.082
								C45.563,66.133,45.691,66.247,45.831,66.372"/>
							<path fill="#962972" d="M45.447,66.032l-0.083,45.082c-0.065,0.062-0.127,0.118-0.184,0.169l0.084-45.411
								C45.321,65.921,45.382,65.974,45.447,66.032"/>
							<path fill="#92286F" d="M45.264,65.872l-0.084,45.411c-0.038,0.034-0.075,0.065-0.109,0.095l0.085-45.599
								C45.189,65.807,45.226,65.838,45.264,65.872"/>
							<path fill="#8E276C" d="M45.155,65.778l-0.085,45.599c-0.027,0.023-0.054,0.045-0.079,0.064l0.085-45.73
								C45.102,65.732,45.128,65.754,45.155,65.778"/>
							<path fill="#8A2669" d="M45.077,65.711l-0.085,45.73c-0.017,0.013-0.033,0.025-0.048,0.036l0.085-45.807
								C45.044,65.684,45.06,65.697,45.077,65.711"/>
							<path fill="#872566" d="M45.029,65.671l-0.085,45.807c-0.015,0.012-0.03,0.022-0.044,0.032l0.085-45.875
								C44.999,65.646,45.014,65.658,45.029,65.671"/>
							<path fill="#832463" d="M44.985,65.634l-0.085,45.875c-0.011,0.008-0.021,0.015-0.031,0.021l0.085-45.922
								C44.964,65.617,44.974,65.625,44.985,65.634"/>
							<path fill="#7F2361" d="M44.954,65.609l-0.085,45.922c-0.009,0.006-0.017,0.012-0.025,0.017l0.085-45.96
								C44.937,65.595,44.945,65.602,44.954,65.609"/>
							<path fill="#7B225E" d="M44.928,65.588l-0.085,45.96c-0.008,0.005-0.017,0.01-0.024,0.014l0.086-45.993
								C44.912,65.575,44.92,65.582,44.928,65.588"/>
							<path fill="#78215B" d="M44.904,65.569l-0.086,45.993c-0.007,0.005-0.014,0.009-0.021,0.012l0.086-46.021
								C44.89,65.558,44.896,65.563,44.904,65.569"/>
							<path fill="#742058" d="M44.883,65.552l-0.086,46.021c-0.006,0.003-0.012,0.006-0.017,0.009l0.085-46.043
								C44.871,65.543,44.876,65.547,44.883,65.552"/>
							<path fill="#701F55" d="M44.865,65.539l-0.085,46.043c-0.005,0.002-0.011,0.005-0.016,0.007l0.085-46.062
								C44.854,65.53,44.86,65.534,44.865,65.539"/>
							<path fill="#6C1E52" d="M44.849,65.526l-0.085,46.062c-0.005,0.002-0.01,0.004-0.015,0.005l0.086-46.079
								C44.839,65.519,44.844,65.522,44.849,65.526"/>
							<path fill="#691D50" d="M44.834,65.515l-0.086,46.079c-0.005,0.002-0.01,0.003-0.014,0.004l0.086-46.093
								C44.825,65.508,44.829,65.512,44.834,65.515"/>
							<path fill="#651C4D" d="M44.82,65.505l-0.086,46.093c-0.009,0.002-0.017,0.003-0.023,0.002l0.085-46.111
								C44.804,65.493,44.812,65.499,44.82,65.505"/>
							<path fill="#611B4A" d="M44.796,65.489L44.711,111.6c-0.007,0-0.013-0.002-0.018-0.005l0.085-46.117
								C44.784,65.48,44.79,65.484,44.796,65.489"/>
						</g>
					</g>
					<g>
						<path fill="#A32D7C" d="M119.917,59.02c-0.021,11.529-0.05,26.902-0.072,38.432c-22.548,3.169-48.657,6.838-71.206,10.008
							c0.021-11.53,0.05-26.902,0.072-38.433C71.26,65.858,97.368,62.188,119.917,59.02z"/>
					</g>
					<g enable-background="new    ">
						<defs>
							<path id="SVGID_27_" enable-background="new    " d="M123.125,54.517l-0.009,4.606c-0.006,3.072-0.012,6.143-0.017,9.214
								l-0.009,4.608l-0.008,4.608l-0.009,4.608c-0.002,1.382-0.006,3.226-0.008,4.607c-0.002,1.383-0.006,3.226-0.009,4.607
								c-0.002,1.383-0.006,3.226-0.008,4.607c-0.003,1.382-0.006,3.224-0.009,4.605c0-0.075-1.36-1.414-3.194-3.139l0.072-38.432
								C121.758,56.778,123.124,54.854,123.125,54.517z"/>
						</defs>
						<clipPath id="SVGID_28_">
							<use xlink:href="#SVGID_27_"  overflow="visible"/>
						</clipPath>
						<g clip-path="url(#SVGID_28_)" enable-background="new    ">
							<path fill="#A12C7A" d="M119.845,97.451l0.072-38.432c0.688-0.838,1.31-1.632,1.819-2.314l-0.079,42.473
								C121.15,98.687,120.531,98.096,119.845,97.451"/>
							<path fill="#9D2B77" d="M121.657,99.178l0.079-42.473c0.38-0.51,0.697-0.958,0.932-1.317l-0.083,44.704
								C122.351,99.855,122.036,99.545,121.657,99.178"/>
							<path fill="#992A74" d="M122.585,100.092l0.083-44.704c0.083-0.126,0.155-0.242,0.217-0.345l-0.084,45.27
								C122.739,100.249,122.667,100.175,122.585,100.092"/>
							<path fill="#962972" d="M122.8,100.312l0.084-45.27c0.034-0.058,0.065-0.112,0.093-0.162l-0.084,45.53
								C122.866,100.382,122.835,100.349,122.8,100.312"/>
							<path fill="#92286F" d="M122.893,100.411l0.084-45.53c0.019-0.034,0.035-0.065,0.05-0.095l-0.084,45.678
								C122.928,100.448,122.911,100.431,122.893,100.411"/>
							<path fill="#8E276C" d="M122.943,100.465l0.084-45.678c0.012-0.023,0.022-0.044,0.031-0.064l-0.085,45.778
								C122.964,100.489,122.954,100.478,122.943,100.465"/>
							<path fill="#8A2669" d="M122.974,100.5l0.085-45.778c0.008-0.017,0.015-0.033,0.022-0.048l-0.085,45.852
								C122.989,100.518,122.981,100.51,122.974,100.5"/>
							<path fill="#872566" d="M122.995,100.525l0.085-45.852c0.005-0.013,0.011-0.026,0.015-0.038l-0.085,45.908
								C123.006,100.538,123.001,100.532,122.995,100.525"/>
							<path fill="#832463" d="M123.011,100.544l0.085-45.908c0.003-0.009,0.007-0.018,0.01-0.026l-0.085,45.947
								C123.017,100.553,123.014,100.549,123.011,100.544"/>
							<path fill="#7F2361" d="M123.02,100.557l0.085-45.947c0.002-0.008,0.005-0.017,0.007-0.024l-0.085,45.981
								C123.025,100.563,123.022,100.561,123.02,100.557"/>
							<path fill="#7B225E" d="M123.027,100.566l0.085-45.981c0.002-0.007,0.004-0.015,0.006-0.022l-0.085,46.012
								C123.031,100.573,123.03,100.57,123.027,100.566"/>
							<path fill="#78215B" d="M123.033,100.575l0.085-46.012c0.001-0.006,0.002-0.011,0.003-0.017l-0.086,46.035
								C123.036,100.58,123.034,100.578,123.033,100.575"/>
							<path fill="#742058" d="M123.036,100.581l0.086-46.035c0.001-0.005,0.001-0.01,0.002-0.015l-0.085,46.054
								C123.038,100.585,123.037,100.583,123.036,100.581"/>
							<polyline fill="#701F55" points="123,101 123,54.532 123,54.519 123,100.59 123,101 							"/>
							<polyline fill="#6C1E52" points="122.977,100.59 123,54.519 123,54.517 123.054,59.123 123.035,61.426 123,63.729 
								123,68.337 123.041,72.945 123.057,77.554 123.061,82.162 123.063,84.466 123.062,86.77 123.055,91.377 123.051,93.681 
								123.047,95.984 123.012,98.287 122.977,100.59 122.977,100.59 							"/>
						</g>
					</g>
					<g enable-background="new    ">
						<defs>
							<path id="SVGID_29_" enable-background="new    " d="M123.037,100.594l-7.831,1.1l0,0
								c-5.221,0.734-10.441,1.468-15.662,2.201l-7.832,1.101l-7.831,1.101c-13.052,1.835-26.104,3.669-39.155,5.503
								c0.323-0.045,2.024-1.841,3.913-4.14l71.206-10.008C121.726,99.221,123.109,100.583,123.037,100.594z"/>
						</defs>
						<clipPath id="SVGID_30_">
							<use xlink:href="#SVGID_29_"  overflow="visible"/>
						</clipPath>
						<g clip-path="url(#SVGID_30_)" enable-background="new    ">
							<path fill="#A12C7A" d="M48.64,107.459l71.206-10.008c0.049,0.047,0.099,0.093,0.147,0.139l-71.5,10.049
								C48.541,107.579,48.59,107.519,48.64,107.459"/>
							<path fill="#9D2B77" d="M48.492,107.639l71.5-10.049c0.239,0.225,0.468,0.442,0.688,0.65l-72.899,10.245
								C48.013,108.214,48.25,107.931,48.492,107.639"/>
							<path fill="#992A74" d="M47.781,108.485L120.68,98.24c0.199,0.189,0.39,0.371,0.569,0.544l-74.083,10.412
								C47.364,108.971,47.57,108.732,47.781,108.485"/>
							<path fill="#962972" d="M47.166,109.196l74.083-10.412c0.158,0.151,0.308,0.296,0.448,0.433l-75.036,10.546
								C46.823,109.583,46.992,109.395,47.166,109.196"/>
							<path fill="#92286F" d="M46.661,109.763l75.036-10.546c0.119,0.115,0.232,0.226,0.338,0.329l-75.771,10.649
								C46.392,110.059,46.524,109.914,46.661,109.763"/>
							<path fill="#8E276C" d="M46.264,110.195l75.771-10.649c0.088,0.087,0.171,0.169,0.25,0.246l-76.326,10.727
								C46.056,110.417,46.158,110.309,46.264,110.195"/>
							<path fill="#8A2669" d="M45.958,110.519l76.326-10.727c0.065,0.064,0.126,0.125,0.184,0.183l-76.745,10.786
								C45.799,110.685,45.877,110.604,45.958,110.519"/>
							<path fill="#872566" d="M45.724,110.761l76.745-10.786c0.048,0.049,0.094,0.095,0.137,0.138l-77.065,10.831
								C45.599,110.886,45.66,110.824,45.724,110.761"/>
							<path fill="#832463" d="M45.541,110.943l77.065-10.831c0.037,0.037,0.071,0.072,0.104,0.105l-77.313,10.866
								C45.442,111.039,45.49,110.992,45.541,110.943"/>
							<path fill="#7F2361" d="M45.396,111.084l77.313-10.866c0.028,0.028,0.054,0.056,0.079,0.082l-77.508,10.893
								C45.316,111.158,45.355,111.122,45.396,111.084"/>
							<path fill="#7B225E" d="M45.279,111.192l77.508-10.893c0.021,0.021,0.04,0.042,0.059,0.061l-77.658,10.914
								C45.218,111.249,45.248,111.222,45.279,111.192"/>
							<path fill="#78215B" d="M45.188,111.274l77.658-10.914c0.017,0.019,0.033,0.036,0.048,0.052l-77.786,10.933
								C45.134,111.322,45.161,111.299,45.188,111.274"/>
							<path fill="#742058" d="M45.109,111.345l77.786-10.933c0.013,0.014,0.025,0.027,0.036,0.039l-77.885,10.946
								C45.066,111.381,45.087,111.363,45.109,111.345"/>
							<path fill="#701F55" d="M45.045,111.397l77.885-10.946c0.011,0.013,0.021,0.024,0.03,0.035l-77.973,10.958
								C45.006,111.43,45.025,111.414,45.045,111.397"/>
							<path fill="#6C1E52" d="M44.988,111.444l77.973-10.958c0.009,0.009,0.017,0.019,0.024,0.026l-78.046,10.969
								C44.954,111.47,44.971,111.458,44.988,111.444"/>
							<path fill="#691D50" d="M44.938,111.481l78.046-10.969c0.007,0.009,0.014,0.017,0.02,0.023l-78.111,10.979
								C44.908,111.504,44.923,111.493,44.938,111.481"/>
							<path fill="#651C4D" d="M44.894,111.515l78.111-10.979c0.007,0.01,0.014,0.018,0.019,0.024l-78.181,10.987
								C44.858,111.538,44.875,111.527,44.894,111.515"/>
							<path fill="#611B4A" d="M44.842,111.548l78.181-10.987c0.015,0.021,0.02,0.032,0.014,0.033l-7.831,1.1l0,0l-3.915,0.551
								l-3.916,0.55l-7.831,1.101l-7.832,1.101l-7.831,1.101l-3.916,0.551l-3.916,0.55l-3.916,0.551l-3.916,0.55l-3.916,0.551
								l-3.916,0.551l-3.916,0.55l-3.915,0.55l-3.916,0.551l-3.915,0.55C44.755,111.595,44.794,111.578,44.842,111.548"/>
						</g>
					</g>
					<g enable-background="new    ">
						<defs>
							<path id="SVGID_31_" enable-background="new    " d="M40.874,109.481c0.029-15.358,0.057-30.715,0.085-46.073
								c0-0.005,0.007-0.004,0.021,0.003l-0.085,46.117C40.88,109.521,40.874,109.505,40.874,109.481z"/>
						</defs>
						<clipPath id="SVGID_32_">
							<use xlink:href="#SVGID_31_"  overflow="visible"/>
						</clipPath>
						<g clip-path="url(#SVGID_32_)" enable-background="new    ">
							<path fill="#611B4A" d="M40.979,63.411l-0.085,46.117c-0.014-0.008-0.021-0.023-0.021-0.047l0.004-2.303l0.004-2.303
								l0.004-2.304l0.004-2.304l0.004-2.304l0.004-2.304l0.004-2.304l0.004-2.305l0.004-2.304l0.004-2.305l0.004-2.304l0.004-2.305
								l0.004-2.304l0.004-2.304l0.004-2.304l0.004-2.304l0.004-2.304l0.004-2.304l0.004-2.303l0.004-2.303
								C40.959,63.403,40.966,63.404,40.979,63.411"/>
						</g>
					</g>
					<g enable-background="new    ">
						<defs>
							<path id="SVGID_33_" enable-background="new    " d="M40.962,63.405l7.83-1.101l7.831-1.101h0
								c5.221-0.733,10.441-1.467,15.662-2.201c2.349-0.33,5.482-0.77,7.831-1.101c13.052-1.834,26.104-3.668,39.155-5.502
								c0.014-0.002,0.026-0.001,0.034,0.004L40.979,63.411C40.971,63.406,40.965,63.404,40.962,63.405z"/>
						</defs>
						<clipPath id="SVGID_34_">
							<use xlink:href="#SVGID_33_"  overflow="visible"/>
						</clipPath>
						<g clip-path="url(#SVGID_34_)" enable-background="new    ">
							<polyline fill="#7B225E" points="119.305,52.403 40.979,63.411 40.976,63.409 119.301,52.401 119.305,52.403 							"/>
							<polyline fill="#78215B" points="119.301,52.401 40.976,63.409 40.972,63.407 119.296,52.4 119.301,52.401 							"/>
							<polyline fill="#742058" points="119.148,51.997 40.972,63 40.969,63 119.29,52 119,52 							"/>
							<polyline fill="#701F55" points="119.29,52 40.968,63 40.965,63 119.283,52 119,52 							"/>
							<polyline fill="#6C1E52" points="119.283,52 40.965,63 40.963,63 119.276,52 119,52 							"/>
							<polyline fill="#691D50" points="119.295,52 41,63.206 41,63.305 49,62.254 57,61.179 57,61.191 60.727,60.647 64.548,60.1 
								68.416,59.551 72.309,59.001 80.128,57.901 84.038,57.352 87.951,56.801 91.865,56.251 95.779,55.701 99.695,55.15 
								103.61,54.6 107.525,54.05 111.441,53.5 115.356,52.75 119.271,52 119,52 							"/>
						</g>
					</g>
					<g>
						<polygon fill="#601A49" points="44.693,111.595 40.894,109.528 40.979,63.411 44.778,65.478 						"/>
					</g>
					<g>
						<polygon fill="#842464" points="44.778,65.478 40.979,63.411 119.305,52.403 123.104,54.47 						"/>
					</g>
					<g enable-background="new    ">
						<defs>
							<path id="SVGID_35_" enable-background="new    " d="M48.711,69.026c-1.963-1.846-3.723-3.435-3.933-3.549l78.326-11.008
								c0.209,0.114-1.217,2.151-3.188,4.55L48.711,69.026z"/>
						</defs>
						<clipPath id="SVGID_36_">
							<use xlink:href="#SVGID_35_"  overflow="visible"/>
						</clipPath>
						<g clip-path="url(#SVGID_36_)" enable-background="new    ">
							<path fill="#A12C7A" d="M119.917,59.02L48.711,69.026c-0.203-0.19-0.404-0.379-0.602-0.563l72.4-10.175
								C120.319,58.527,120.121,58.771,119.917,59.02"/>
							<path fill="#A52D7D" d="M120.51,58.288l-72.4,10.175c-0.243-0.227-0.481-0.448-0.71-0.66l73.783-10.37
								C120.971,57.708,120.746,57.994,120.51,58.288"/>
							<path fill="#A82E80" d="M121.183,57.433l-73.783,10.37c-0.216-0.199-0.424-0.392-0.623-0.573l74.967-10.536
								C121.57,56.928,121.382,57.175,121.183,57.433"/>
							<path fill="#AC2F83" d="M121.744,56.693L46.777,67.229c-0.177-0.162-0.346-0.316-0.505-0.46l75.906-10.668
								C122.044,56.287,121.899,56.485,121.744,56.693"/>
							<path fill="#B03085" d="M122.177,56.101L46.271,66.769c-0.14-0.126-0.272-0.246-0.396-0.357l76.622-10.769
								C122.4,55.786,122.293,55.939,122.177,56.101"/>
							<path fill="#B43188" d="M122.497,55.644L45.875,66.412c-0.107-0.096-0.208-0.187-0.303-0.271l77.153-10.843
								C122.657,55.405,122.581,55.521,122.497,55.644"/>
							<path fill="#B7328B" d="M122.726,55.298L45.572,66.142c-0.088-0.078-0.17-0.15-0.246-0.216l77.569-10.901
								C122.847,55.107,122.79,55.199,122.726,55.298"/>
							<path fill="#BB338E" d="M122.896,55.024L45.327,65.926c-0.16-0.139-0.29-0.25-0.385-0.327l78.162-10.985
								C123.07,54.709,123,54.848,122.896,55.024"/>
							<path fill="#B7328B" d="M123.104,54.614L44.942,65.599c-0.015-0.012-0.028-0.022-0.041-0.033l78.215-10.992
								C123.112,54.586,123.108,54.6,123.104,54.614"/>
							<path fill="#B43188" d="M123.116,54.574L44.901,65.566c-0.008-0.006-0.015-0.012-0.022-0.018l78.242-10.996
								C123.12,54.56,123.118,54.566,123.116,54.574"/>
							<polyline fill="#B03085" points="123.121,54.553 44.878,65.549 44.866,65.539 123.123,54.541 123.121,54.553 							"/>
							<polyline fill="#AC2F83" points="123.123,54.541 44.866,65.539 44.854,65.53 123.124,54.53 123.123,54.541 							"/>
							<polyline fill="#A82E80" points="123,54.53 44.792,65.53 44.75,65.521 123,54.52 123,55 							"/>
							<polyline fill="#A52D7D" points="123,54.52 44.78,65.521 44.739,65.514 123,54.511 123,55 							"/>
							<polyline fill="#A12C7A" points="123,54.511 44.771,65.514 44.729,65.507 123,54.502 123,55 							"/>
							<polyline fill="#9D2B77" points="123,54.502 44.761,65.507 44.724,65.502 123,54.497 123,55 							"/>
							<polyline fill="#992A74" points="123.123,54.497 44.816,65.502 44.811,65.498 123.122,54.492 123.123,54.497 							"/>
							<polyline fill="#962972" points="123.122,54.492 44.811,65.498 44.805,65.495 123.12,54.488 123.122,54.492 							"/>
							<polyline fill="#92286F" points="123.12,54.488 44.805,65.495 44.8,65.491 123.118,54.484 123.12,54.488 							"/>
							<polyline fill="#8E276C" points="123.118,54.484 44.8,65.491 44.795,65.488 123.116,54.481 123.118,54.484 							"/>
							<polyline fill="#8A2669" points="123.116,54.481 44.795,65.488 44.791,65.485 123.114,54.478 123.116,54.481 							"/>
							<polyline fill="#872566" points="123.114,54.478 44.791,65.485 44.787,65.482 123.111,54.475 123.114,54.478 							"/>
							<polyline fill="#832463" points="123.111,54.475 44.787,65.482 44.783,65.48 123.108,54.472 123.111,54.475 							"/>
							<polyline fill="#7F2361" points="123.108,54.472 44.783,65.48 44.779,65.478 123.105,54.47 123.108,54.472 							"/>
							<polyline fill="#7B225E" points="123.105,54.47 44.779,65.478 44.779,65.478 123.104,54.47 123.105,54.47 							"/>
						</g>
					</g>
				</g>
			</g>
		</g>
	</g>
	<g>
		<path fill="#BB338E" d="M162.729,40.394c5.781,0,10.729,2,14.834,6c4.109,4,6.162,9.324,6.162,15.972s-2.039,12.053-6.121,16.215
			c-4.082,4.163-8.836,6.241-14.27,6.241c-5.431,0-10.309-2.377-14.634-7.134v22.215h-9.079V41.043h9.079v7.539
			C152.268,43.124,156.943,40.394,162.729,40.394z M148.539,62.688c0,4.108,1.244,7.475,3.729,10.094
			c2.484,2.623,5.515,3.934,9.08,3.934c3.566,0,6.676-1.297,9.326-3.892c2.645-2.595,3.971-5.959,3.971-10.094
			c0-4.136-1.299-7.566-3.893-10.296s-5.703-4.094-9.322-4.094c-3.624,0-6.677,1.364-9.162,4.094
			C149.783,55.164,148.539,58.583,148.539,62.688z"/>
		<path fill="#BB338E" d="M225.535,84.174h-8.27v-5.756c-3.564,4.271-8.35,6.403-14.352,6.403c-4.486,0-8.201-1.268-11.145-3.81
			c-2.949-2.539-4.418-5.931-4.418-10.174s1.566-7.419,4.701-9.526c3.133-2.107,7.377-3.162,12.73-3.162h11.752v-1.621
			c0-5.729-3.188-8.594-9.566-8.594c-4,0-8.16,1.46-12.486,4.378l-4.051-5.676c5.24-4.161,11.188-6.243,17.836-6.243
			c5.08,0,9.227,1.286,12.445,3.851c3.215,2.569,4.822,6.608,4.822,12.122V84.174z M216.457,68.122v-3.648H206.24
			c-6.541,0-9.811,2.055-9.811,6.16c0,2.107,0.812,3.717,2.434,4.824c1.621,1.108,3.877,1.662,6.77,1.662
			c2.889,0,5.418-0.811,7.582-2.432C215.373,73.067,216.457,70.878,216.457,68.122z"/>
		<path fill="#BB338E" d="M240.242,60.825v23.349h-9.078v-43.13h9.078v7.864c1.461-2.647,3.473-4.729,6.043-6.243
			c2.564-1.513,5.336-2.271,8.309-2.271c4.863,0,8.799,1.488,11.797,4.459c3,2.973,4.5,7.271,4.5,12.89v26.431h-9.082V60.501
			c0-7.945-3.297-11.919-9.889-11.919c-3.137,0-5.867,1.042-8.191,3.122C241.404,53.784,240.242,56.825,240.242,60.825z"/>
		<path fill="#BB338E" d="M317.672,66.581h-33.809c0.217,3.137,1.648,5.662,4.299,7.58c2.646,1.919,5.676,2.879,9.078,2.879
			c5.406,0,9.512-1.704,12.322-5.109l5.189,5.677c-4.648,4.81-10.701,7.214-18.158,7.214c-6.057,0-11.205-2.012-15.445-6.039
			c-4.246-4.025-6.363-9.43-6.363-16.215c0-6.781,2.158-12.174,6.484-16.174c4.324-4,9.418-6,15.283-6
			c5.863,0,10.852,1.772,14.957,5.311c4.105,3.541,6.162,8.419,6.162,14.633V66.581z M283.863,59.446h24.729
			c0-3.621-1.137-6.405-3.406-8.351c-2.27-1.945-5.066-2.918-8.391-2.918s-6.309,1.013-8.959,3.041
			C285.188,53.245,283.863,55.988,283.863,59.446z"/>
		<path fill="#BB338E" d="M332.191,84.174h-9.08V24.018h9.08V84.174z"/>
		<path fill="#BB338E" d="M338.873,32.449c-1.137-1.134-1.703-2.485-1.703-4.053s0.566-2.92,1.703-4.055
			c1.135-1.134,2.486-1.702,4.053-1.702c1.568,0,2.92,0.567,4.055,1.702c1.135,1.135,1.703,2.487,1.703,4.055
			s-0.568,2.918-1.703,4.053c-1.135,1.135-2.486,1.702-4.055,1.702C341.359,34.151,340.008,33.583,338.873,32.449z M347.385,84.174
			h-9.08v-43.13h9.08V84.174z"/>
		<path fill="#33B973" d="M368.195,37.475v3.568h11.352v7.297h-11.352v35.833h-9.078V48.34h-5.434v-7.297h5.434v-3.325
			c0-4.54,1.363-8.147,4.096-10.824c2.727-2.675,6.025-4.012,9.887-4.012c3.867,0,7.395,1.433,10.582,4.296l-3.73,6.404
			c-1.781-1.89-3.646-2.836-5.594-2.836c-1.945,0-3.457,0.607-4.541,1.824C368.736,33.787,368.195,35.422,368.195,37.475z"/>
		<path fill="#3382B8" d="M393.732,101.36c-3.943,0-7.512-1.433-10.703-4.296l4.137-7.378c1.893,1.784,3.85,2.676,5.879,2.676
			c2.025,0,3.674-0.73,4.945-2.188c1.268-1.46,1.906-3.054,1.906-4.783c0-0.758-5.814-15.538-17.432-44.347h9.727l12.891,31.781
			l12.893-31.781h9.729l-20.918,51.238c-1.244,2.809-3.027,5.026-5.35,6.647C399.111,100.55,396.543,101.36,393.732,101.36z"/>
	</g>
</g>
</svg>
